<svg xmlns="http://www.w3.org/2000/svg" viewBox="0 0 388.55 271.65"><title>llaveros</title><g id="Capa_8" data-name="Capa 8"><rect width="388.55" height="271.65" fill="#d7dbd7"/><polygon points="29.44 34.94 26.53 40.2 32.36 40.2 29.44 34.94" fill="#397ee2" stroke="#397ee2" stroke-miterlimit="10" stroke-width="0.5"/><polygon points="81.66 19.42 78.74 24.69 84.57 24.69 81.66 19.42" fill="#397ee2" stroke="#397ee2" stroke-miterlimit="10" stroke-width="0.5"/><polygon points="218.98 132.95 216.06 138.22 221.89 138.22 218.98 132.95" fill="#397ee2" stroke="#397ee2" stroke-miterlimit="10" stroke-width="0.5"/><polygon points="361.29 142.29 358.37 147.56 364.21 147.56 361.29 142.29" fill="#397ee2" stroke="#397ee2" stroke-miterlimit="10" stroke-width="0.5"/><polygon points="144.19 82.64 141.28 87.91 147.11 87.91 144.19 82.64" fill="#397ee2" stroke="#397ee2" stroke-miterlimit="10" stroke-width="0.5"/><polygon points="246.59 85.27 243.68 90.54 249.51 90.54 246.59 85.27" fill="#397ee2" stroke="#397ee2" stroke-miterlimit="10" stroke-width="0.5"/><polygon points="81.66 158.9 78.74 164.16 84.57 164.16 81.66 158.9" fill="#397ee2" stroke="#397ee2" stroke-miterlimit="10" stroke-width="0.5"/><polygon points="327.68 191.06 324.76 196.32 330.6 196.32 327.68 191.06" fill="#397ee2" stroke="#397ee2" stroke-miterlimit="10" stroke-width="0.5"/><polygon points="122.14 251.27 119.22 256.53 125.05 256.53 122.14 251.27" fill="#397ee2" stroke="#397ee2" stroke-miterlimit="10" stroke-width="0.5"/><polygon points="373.63 26.05 370.72 31.32 376.55 31.32 373.63 26.05" fill="#397ee2" stroke="#397ee2" stroke-miterlimit="10" stroke-width="0.5"/><polygon points="218.98 22.05 216.06 27.32 221.89 27.32 218.98 22.05" fill="#397ee2" stroke="#397ee2" stroke-miterlimit="10" stroke-width="0.5"/><polygon points="335.98 101.81 333.06 107.07 338.89 107.07 335.98 101.81" fill="#397ee2" stroke="#397ee2" stroke-miterlimit="10" stroke-width="0.5"/><polygon points="138.36 121.77 135.44 127.03 141.28 127.03 138.36 121.77" fill="#397ee2" stroke="#397ee2" stroke-miterlimit="10" stroke-width="0.5"/><polygon points="222.06 202.15 219.15 207.41 224.98 207.41 222.06 202.15" fill="#397ee2" stroke="#397ee2" stroke-miterlimit="10" stroke-width="0.5"/><polygon points="327.68 248.64 324.76 253.9 330.6 253.9 327.68 248.64" fill="#397ee2" stroke="#397ee2" stroke-miterlimit="10" stroke-width="0.5"/><polygon points="283.08 161.53 280.17 166.79 286 166.79 283.08 161.53" fill="#397ee2" stroke="#397ee2" stroke-miterlimit="10" stroke-width="0.5"/><polygon points="321.92 63.99 319 69.25 324.83 69.25 321.92 63.99" fill="#397ee2" stroke="#397ee2" stroke-miterlimit="10" stroke-width="0.5"/><polygon points="199.46 101.81 196.55 107.07 202.38 107.07 199.46 101.81" fill="#397ee2" stroke="#397ee2" stroke-miterlimit="10" stroke-width="0.5"/><polygon points="170.92 214.6 168 219.87 173.83 219.87 170.92 214.6" fill="#397ee2" stroke="#397ee2" stroke-miterlimit="10" stroke-width="0.5"/><polygon points="272.94 237.6 270.03 242.87 275.86 242.87 272.94 237.6" fill="#397ee2" stroke="#397ee2" stroke-miterlimit="10" stroke-width="0.5"/><polygon points="168 163.63 165.08 168.9 170.92 168.9 168 163.63" fill="#397ee2" stroke="#397ee2" stroke-miterlimit="10" stroke-width="0.5"/><polygon points="286 99.17 283.08 104.44 288.92 104.44 286 99.17" fill="#397ee2" stroke="#397ee2" stroke-miterlimit="10" stroke-width="0.5"/><polygon points="60.44 63.99 57.52 69.25 63.35 69.25 60.44 63.99" fill="#397ee2" stroke="#397ee2" stroke-miterlimit="10" stroke-width="0.5"/><polygon points="44.6 121.77 41.68 127.03 47.51 127.03 44.6 121.77" fill="#397ee2" stroke="#397ee2" stroke-miterlimit="10" stroke-width="0.5"/><polygon points="38.76 178.81 35.85 184.07 41.68 184.07 38.76 178.81" fill="#397ee2" stroke="#397ee2" stroke-miterlimit="10" stroke-width="0.5"/><polygon points="53.58 232.13 50.66 237.4 56.49 237.4 53.58 232.13" fill="#397ee2" stroke="#397ee2" stroke-miterlimit="10" stroke-width="0.5"/><polygon points="216.06 251.27 213.15 256.53 218.98 256.53 216.06 251.27" fill="#397ee2" stroke="#397ee2" stroke-miterlimit="10" stroke-width="0.5"/><polygon points="102.48 199.52 99.56 204.78 105.39 204.78 102.48 199.52" fill="#397ee2" stroke="#397ee2" stroke-miterlimit="10" stroke-width="0.5"/><polygon points="84.57 114.65 81.66 119.92 87.49 119.92 84.57 114.65" fill="#397ee2" stroke="#397ee2" stroke-miterlimit="10" stroke-width="0.5"/><polygon points="105.39 57.78 102.48 63.05 108.31 63.05 105.39 57.78" fill="#397ee2" stroke="#397ee2" stroke-miterlimit="10" stroke-width="0.5"/><polygon points="144.19 37.57 141.28 42.84 147.11 42.84 144.19 37.57" fill="#397ee2" stroke="#397ee2" stroke-miterlimit="10" stroke-width="0.5"/><polygon points="193.63 51.47 190.71 56.73 196.55 56.73 193.63 51.47" fill="#397ee2" stroke="#397ee2" stroke-miterlimit="10" stroke-width="0.5"/><polygon points="275.86 30.69 272.94 35.95 278.78 35.95 275.86 30.69" fill="#397ee2" stroke="#397ee2" stroke-miterlimit="10" stroke-width="0.5"/><polygon points="313.24 132.95 310.32 138.22 316.15 138.22 313.24 132.95" fill="#397ee2" stroke="#397ee2" stroke-miterlimit="10" stroke-width="0.5"/><polygon points="264.94 129.87 262.03 135.13 267.86 135.13 264.94 129.87" fill="#397ee2" stroke="#397ee2" stroke-miterlimit="10" stroke-width="0.5"/><polygon points="243.68 163.87 240.76 169.14 246.59 169.14 243.68 163.87" fill="#397ee2" stroke="#397ee2" stroke-miterlimit="10" stroke-width="0.5"/><polygon points="330.39 28.05 327.47 33.32 333.3 33.32 330.39 28.05" fill="#397ee2" stroke="#397ee2" stroke-miterlimit="10" stroke-width="0.5"/><polygon points="364.21 60.41 361.29 65.68 367.12 65.68 364.21 60.41" fill="#397ee2" stroke="#397ee2" stroke-miterlimit="10" stroke-width="0.5"/><polygon points="136.49 183.86 133.57 189.12 139.4 189.12 136.49 183.86" fill="#397ee2" stroke="#397ee2" stroke-miterlimit="10" stroke-width="0.5"/><polygon points="280.17 196.89 277.25 202.15 283.08 202.15 280.17 196.89" fill="#397ee2" stroke="#397ee2" stroke-miterlimit="10" stroke-width="0.5"/><polygon points="361.29 214.6 358.37 219.87 364.21 219.87 361.29 214.6" fill="#397ee2" stroke="#397ee2" stroke-miterlimit="10" stroke-width="0.5"/></g><g id="Capa_1" data-name="Capa 1"><ellipse cx="78.72" cy="76.78" rx="48.63" ry="50.91" fill="#e52610" stroke="#000" stroke-miterlimit="10" stroke-width="0.5"/><ellipse cx="78.84" cy="77.41" rx="32.08" ry="34.36" fill="#faf300" stroke="#000" stroke-miterlimit="10" stroke-width="0.5"/><ellipse cx="78.72" cy="77.29" rx="28.93" ry="30.69" fill="#fff" stroke="#000" stroke-miterlimit="10" stroke-width="0.5"/><polygon points="104.61 38.76 71.52 69.33 79.41 69.33 62.67 87.01 69.5 87.01 51.31 113.03 91.22 76.78 84.65 77.06 98.3 58.97 90.46 59.48 104.61 38.76" fill="#faf300" stroke="#000" stroke-miterlimit="10" stroke-width="0.5"/></g><g id="Capa_2" data-name="Capa 2"><ellipse cx="188.63" cy="80.15" rx="49.66" ry="50.91" fill="#f2ec03" stroke="#000" stroke-miterlimit="10" stroke-width="0.5"/><path d="M192.77,59c-.42,1.17-.84,2.33-1.25,3.5-2,0-5.32.64-6.83-.4-.81-.56-1.47-2.29-2-3.14,1.13,1.76-.61,7.81-1.14,9.58-1,3.28-3.5,5.87-7.14,5.76-2.54-.08-6.14-1.51-7.12-4-.53-1.37.41-7.84,2-8.27,0,0-56.85,15-6.07,41.28-2-1-4-5.6-4.57-7.6-.87-3.09.84-7.15,4.2-7.83,3.76-.76,7.61,2.68,10.43,4.68,3.86-3,6.31-2.33,9.08,1.44.69,1,5.68,8.36,5.12,9.31,2.2-3.72,8-18.29,13.64-10.71-.23-.3,5-3,5.37-3.21,3.86-1.75,9.61-3,10.53,2.59.65,3.92-2.4,8-4.79,10.83,0,0,52.3-21.07-6.82-42,1.68.6,3.36,6.16,3.51,7.66.54,5.45-7.56,8.18-11.39,5.28C194,71,191.52,63.26,192.77,59Z" stroke="#000" stroke-miterlimit="10" stroke-width="0.75"/></g><g id="Capa_4" data-name="Capa 4"><ellipse cx="308.22" cy="80.15" rx="49.66" ry="50.91" fill="#b40006" stroke="#000" stroke-miterlimit="10" stroke-width="0.5"/><circle cx="307.9" cy="80.48" r="42.97" fill="#f2f2f5"/><circle cx="307.94" cy="80.66" r="35.18" fill="#b70009"/><circle cx="308.44" cy="80.8" r="28.15" fill="#000068"/><polygon points="291.85 102.44 295.25 84.49 282.38 71.52 300.5 69.2 308.87 52.95 316.67 69.47 334.7 72.41 321.41 84.94 324.19 103 308.16 94.22 291.85 102.44" fill="#fff"/></g><g id="Capa_5" data-name="Capa 5"><ellipse cx="78.72" cy="185.05" rx="49.66" ry="50.91" fill="#c22401" stroke="#000" stroke-miterlimit="10" stroke-width="0.5"/><ellipse cx="77.69" cy="183.07" rx="47.76" ry="24.21" transform="translate(-89.71 75.7) rotate(-34.33)"/><path d="M109.05,221.6,91.37,180.12c.07.15,11.4-8.75,12.31-9.53,6.18-5.26,6.47-12.6-1.72-16.52-7.93-3.8-16.33-2.25-24.51-.38q-7.22,1.65-14.22,4c-2.25.74-4.48,1.54-6.69,2.38-1.21.46-6,1.55-6.6,2.63L48.17,166s24.25-8.34,37.39-4c0,0,7.83,3.39-2,12.68,0,0-8.67,5.87-6.61.76l.76-5.86-15.12,3.28L47.41,218.52l16.67-6.07,8.34-24.76Z" fill="#f7dc3a" stroke="#000" stroke-miterlimit="10" stroke-width="0.5"/></g><g id="Capa_6" data-name="Capa 6"><ellipse cx="187.85" cy="188.65" rx="49.66" ry="50.91" fill="#0642aa" stroke="#000" stroke-miterlimit="10" stroke-width="0.5"/><polygon points="218.25 160.09 156.86 160.09 140.57 176.95 186.85 232.09 234.93 175.84 218.25 160.09" fill="#c22401" stroke="#000" stroke-miterlimit="10" stroke-width="0.75"/><path d="M217.68,167.1v10.8h-15s-.19-16.3-25.57-10.8c0,0-18.92,6.82,1.34,13.07,0,0,34.84-3.31,36.93,9l10.42-11.58Z" fill="#ff0" stroke="#000" stroke-miterlimit="10" stroke-width="0.5"/><polygon points="207.45 170.32 203.66 164.82 209.91 164.82 207.45 170.32" fill="#ff0" stroke="#000" stroke-miterlimit="10" stroke-width="0.5"/><path d="M166.15,164.82h-7l-10.62,11.94,5.5,6.63S152.5,173.35,166.15,164.82Z" fill="#ff0" stroke="#000" stroke-miterlimit="10" stroke-width="0.5"/><path d="M160.65,192.25l8.46,9.52s8.89-9.09,17.74,2.09c0,0,27,1.13,15.86-7.77Z" fill="#ff0" stroke="#000" stroke-miterlimit="10" stroke-width="0.5"/><path d="M199.11,209.54s-15.34,2.65-22.16,0l10.8,12.51Z" fill="#ff0" stroke="#000" stroke-miterlimit="10" stroke-width="0.5"/></g><g id="Capa_7" data-name="Capa 7"><ellipse cx="308.54" cy="189.13" rx="49.66" ry="50.91" stroke="#000" stroke-miterlimit="10" stroke-width="0.5"/><path d="M333.87,231.69c.44-.28.87-.58,1.29-.89a1,1,0,0,0,.43-.51c.12-.5-.55-.82-1.07-.92-5.11-1-10.38-.92-15.56-1.49-7.74-.86-13.93-3.36-17.15-10.49-3.1-6.88-2.4-14.75.67-21.51,3.7-8.16,10.07-15.32,12-24.19,2-9.26-4-16.62-13-19.42-6.63-2.05-14.26-3.48-21.05-1.24-15.48,5.12-21.47,28.8-20.27,42.53a50.41,50.41,0,0,0,16.4,32.89,48.78,48.78,0,0,0,25.14,11.83,50.35,50.35,0,0,0,32.18-6.59Z" fill="#fff"/><circle cx="291.57" cy="171.32" r="8.68" stroke="#000" stroke-miterlimit="10" stroke-width="0.5"/><ellipse cx="325.27" cy="206.93" rx="8.59" ry="9.38" fill="#fff" stroke="#000" stroke-miterlimit="10" stroke-width="0.5"/></g></svg>