<svg id="Capa_1" data-name="Capa 1" xmlns="http://www.w3.org/2000/svg" viewBox="0 0 583.58 383.16"><title>logo renovado</title><path d="M114.17,182.2l-5.38-11.54a224.16,224.16,0,0,1,31.67-12,169.08,169.08,0,0,1,67.16-5.58,263.1,263.1,0,0,1,33.3,6.21c43.9,10.9,85.25,30.11,129.46,39.66a246.71,246.71,0,0,0,33.43,5,215.36,215.36,0,0,0,33.79-.3A265.79,265.79,0,0,0,471,198.49c11-2.37,21.94-5.29,32.72-8.62s21.45-7,32.1-10.76,21.25-7.64,31.79-11.68c21.07-8.07,41.88-16.87,62.18-26.74l5.58,11.45c-20.71,10.07-41.87,19-63.2,27.18q-16,6.13-32.11,11.8c-5.38,1.89-10.69,3.75-16.15,5.59S513,200.34,507.48,202c-11.05,3.42-22.32,6.43-33.78,8.9a278.65,278.65,0,0,1-35,5.39,228.12,228.12,0,0,1-35.85.31,260.39,260.39,0,0,1-35.17-5.27c-23-5-44.91-12.36-66.31-19.73s-42.38-14.75-63.52-20c-5.29-1.29-10.58-2.5-15.87-3.49-2.64-.51-5.3-.95-7.94-1.38l-3.92-.55c-1.31-.2-2.62-.38-3.93-.49A156.14,156.14,0,0,0,144,170.88,212.71,212.71,0,0,0,114.17,182.2Z" transform="translate(-103.42 -6.03)" fill="#ce6130" stroke="#ce6130" stroke-miterlimit="10" fill-rule="evenodd"/><path d="M108.79,170.66l-5.37-11.54a235,235,0,0,1,33.52-12.71,181.54,181.54,0,0,1,72.1-6c1.5.13,3,.34,4.48.56l4.47.63c2.94.47,5.86,1,8.76,1.52,5.81,1.09,11.54,2.4,17.24,3.79,22.73,5.66,44.42,13.32,65.69,20.66s42.24,14.36,63.39,18.91a234.39,234.39,0,0,0,31.69,4.76A202.74,202.74,0,0,0,436.5,191,253.54,253.54,0,0,0,468.35,186c10.59-2.28,21.14-5.1,31.66-8.34,5.25-1.63,10.5-3.31,15.75-5.11s10.58-3.64,15.84-5.49q15.84-5.58,31.46-11.56c20.83-8,41.29-16.63,61.18-26.3l5.57,11.45c-20.3,9.87-41.11,18.67-62.18,26.74q-15.81,6.06-31.79,11.68c-10.65,3.74-21.31,7.45-32.1,10.76s-21.69,6.25-32.72,8.62a265.79,265.79,0,0,1-33.42,5.15,215.36,215.36,0,0,1-33.79.3,246.71,246.71,0,0,1-33.43-5c-44.21-9.55-85.56-28.76-129.46-39.66a263.1,263.1,0,0,0-33.3-6.21,169.08,169.08,0,0,0-67.16,5.58A224.16,224.16,0,0,0,108.79,170.66Z" transform="translate(-103.42 -6.03)" fill="#9aa936" fill-rule="evenodd"/><polygon points="583.58 109.34 431.03 118.22 484.65 153.65 583.58 109.34" fill="#9aa936" fill-rule="evenodd"/><polygon points="481.37 215.15 583.58 109.34 484.65 153.65 481.37 215.15" fill="#c56f35" fill-rule="evenodd"/><text transform="translate(58.35 201.06) scale(0.73 1)" font-size="236.55" fill="#fcfcfc" font-family="MfQueenLeela, Mf Queen Leela">A</text><text transform="translate(118.52 210.82) scale(0.75 1)" font-size="234.16" fill="#fcfcfc" font-family="MfQueenLeela, Mf Queen Leela">l</text><text transform="translate(151.66 210.82) scale(0.75 1)" font-size="234.16" fill="#fcfcfc" font-family="MfQueenLeela, Mf Queen Leela">l</text><text transform="translate(157.77 211.89) scale(0.99 1)" font-size="190.76" fill="#fcfcfc" font-family="MfQueenLeela, Mf Queen Leela">y</text><text transform="translate(218.49 210.82) scale(0.91 1)" font-size="211.88" fill="#fcfcfc" font-family="MfQueenLeela, Mf Queen Leela">o</text><text transform="translate(274.98 210.82) scale(0.78 1)" font-size="219.82" fill="#fcfcfc" font-family="MfQueenLeela, Mf Queen Leela">u</text><text transform="translate(330.95 210.82) scale(0.79 1)" font-size="220.61" fill="#fcfcfc" font-family="MfQueenLeela, Mf Queen Leela">r</text><text transform="translate(383.94 210.82) scale(0.78 1)" font-size="225.55" fill="#fcfcfc" font-family="MfQueenLeela, Mf Queen Leela">s</text></svg>