<svg id="Capa_1" data-name="Capa 1" xmlns="http://www.w3.org/2000/svg" width="172.5mm" height="97.71mm" viewBox="0 0 488.99 276.98"><title>logo renovado 1</title><path d="M36.9,222.56l-4.75-11.82A206.78,206.78,0,0,1,58.86,202a170.24,170.24,0,0,1,27.75-4.42,171.21,171.21,0,0,1,28.1.42,247.67,247.67,0,0,1,27.75,4.43c36.69,7.81,71.73,21.83,108.58,28.71a236.64,236.64,0,0,0,27.81,3.62,203.27,203.27,0,0,0,28-.14c18.68-1.32,37.1-5,55.2-9.77,9.05-2.38,18-5.07,27-7.78s17.89-5.54,26.77-8.48c17.78-5.86,35.39-12.27,52.65-19.51l4.93,11.74c-17.65,7.41-35.57,13.92-53.58,19.87q-13.5,4.45-27.07,8.56c-9,2.73-18.14,5.46-27.44,7.91-18.6,4.86-37.78,8.76-57.52,10.16a217.7,217.7,0,0,1-29.79.15,250.58,250.58,0,0,1-29.31-3.82c-19.21-3.59-37.65-9-55.65-14.31s-35.61-10.69-53.24-14.46a241,241,0,0,0-26.32-4.21,150.86,150.86,0,0,0-51.58,3.69A193.2,193.2,0,0,0,36.9,222.56Z" transform="translate(-27.4 -91.81)" fill="#c46134" stroke="#c46134" stroke-miterlimit="10" fill-rule="evenodd"/><path d="M32.15,210.74,27.4,198.93a218.88,218.88,0,0,1,28.41-9.28,181.88,181.88,0,0,1,29.9-4.76,183.44,183.44,0,0,1,30.21.44A264,264,0,0,1,145.11,190c19,4.07,37.32,9.63,55.21,15s35.47,10.41,53.06,13.69a225.42,225.42,0,0,0,26.31,3.44,192.15,192.15,0,0,0,26.28-.14c17.6-1.24,35.27-4.79,52.87-9.39,8.8-2.31,17.59-4.94,26.51-7.65s17.72-5.48,26.49-8.38c17.54-5.79,34.83-12.08,51.71-19.16l4.93,11.74c-17.26,7.24-34.87,13.65-52.65,19.51q-13.32,4.41-26.77,8.48c-9,2.71-17.93,5.4-27,7.78-18.1,4.72-36.52,8.45-55.2,9.77a203.27,203.27,0,0,1-28,.14A236.64,236.64,0,0,1,251,231.15c-36.85-6.88-71.89-20.9-108.58-28.71A247.67,247.67,0,0,0,114.71,198a171.21,171.21,0,0,0-28.1-.42A170.24,170.24,0,0,0,58.86,202,206.78,206.78,0,0,0,32.15,210.74Z" transform="translate(-27.4 -91.81)" fill="#95a33a" fill-rule="evenodd"/><polygon points="488.99 79.04 361.23 85.45 406.14 111.07 488.99 79.04" fill="#95a33a" fill-rule="evenodd"/><polygon points="403.39 155.53 488.99 79.04 406.14 111.07 403.39 155.53" fill="#bd6d37" fill-rule="evenodd"/><text transform="translate(49.11 145.34) scale(0.85 1)" font-size="170.99" fill="#fff" font-family="MfQueenLeela, Mf Queen Leela">A</text><text transform="translate(99.5 152.4) scale(0.87 1)" font-size="169.27" fill="#fff" font-family="MfQueenLeela, Mf Queen Leela">l</text><text transform="translate(127.26 152.4) scale(0.87 1)" font-size="169.27" fill="#fff" font-family="MfQueenLeela, Mf Queen Leela">l</text><text transform="translate(132.38 153.17) scale(1.14 1)" font-size="137.9" fill="#fff" font-family="MfQueenLeela, Mf Queen Leela">y</text><text transform="translate(183.22 152.4) scale(1.05 1)" font-size="153.16" fill="#fff" font-family="MfQueenLeela, Mf Queen Leela">o</text><text transform="translate(230.54 152.4) scale(0.9 1)" font-size="158.9" fill="#fff" font-family="MfQueenLeela, Mf Queen Leela">u</text><text transform="translate(277.41 152.4) scale(0.91 1)" font-size="159.47" fill="#fff" font-family="MfQueenLeela, Mf Queen Leela">r</text><text transform="translate(321.8 152.4) scale(0.9 1)" font-size="163.05" fill="#fff" font-family="MfQueenLeela, Mf Queen Leela">s</text></svg>