<svg id="Capa_1" data-name="Capa 1" xmlns="http://www.w3.org/2000/svg" width="186.14mm" height="126.94mm" viewBox="0 0 527.65 359.83"><title>logo renovado</title><rect x="0.5" y="0.5" width="526.65" height="358.83" fill="#059599" stroke="#000" stroke-miterlimit="10"/><path d="M86.23,191.71l-4.75-11.82a207.42,207.42,0,0,1,26.72-8.73A167.77,167.77,0,0,1,136,166.74a171.1,171.1,0,0,1,28.09.41,250.19,250.19,0,0,1,27.76,4.44c36.68,7.81,71.72,21.83,108.58,28.7a236.66,236.66,0,0,0,27.81,3.63,204.85,204.85,0,0,0,28-.14c18.67-1.32,37.1-5.05,55.19-9.78,9.06-2.38,18-5.06,27-7.78s17.89-5.53,26.78-8.47c17.78-5.87,35.39-12.27,52.65-19.51L522.75,170c-17.65,7.4-35.57,13.92-53.58,19.86q-13.51,4.47-27.07,8.57c-9,2.72-18.14,5.46-27.45,7.91-18.59,4.85-37.78,8.76-57.51,10.16a217.84,217.84,0,0,1-29.8.15A250.58,250.58,0,0,1,298,212.81c-19.21-3.59-37.64-9-55.64-14.31S206.78,187.8,189.14,184a236.05,236.05,0,0,0-26.31-4.21,157.79,157.79,0,0,0-26-.39,156.11,156.11,0,0,0-25.6,4.08A193.84,193.84,0,0,0,86.23,191.71Z" transform="translate(-67.71 -1.77)" fill="#ce6130" stroke="#ce6130" stroke-miterlimit="10" fill-rule="evenodd"/><path d="M81.48,179.89l-4.74-11.82a220.27,220.27,0,0,1,28.4-9.28,176,176,0,0,1,60.12-4.31,262,262,0,0,1,29.19,4.65c19,4.07,37.32,9.63,55.21,15s35.46,10.41,53.06,13.69A224.86,224.86,0,0,0,329,191.22a192,192,0,0,0,26.27-.14c17.61-1.24,35.28-4.79,52.87-9.39,8.8-2.32,17.59-4.94,26.52-7.65s17.71-5.48,26.48-8.38c17.55-5.79,34.84-12.08,51.71-19.16l4.94,11.74c-17.26,7.24-34.87,13.64-52.65,19.51q-13.34,4.41-26.78,8.47c-9,2.72-17.92,5.4-27,7.78-18.09,4.73-36.52,8.46-55.19,9.78a204.85,204.85,0,0,1-28,.14,236.66,236.66,0,0,1-27.81-3.63c-36.86-6.87-71.9-20.89-108.58-28.7A250.19,250.19,0,0,0,164,167.15a171.1,171.1,0,0,0-28.09-.41,167.77,167.77,0,0,0-27.75,4.42A207.42,207.42,0,0,0,81.48,179.89Z" transform="translate(-67.71 -1.77)" fill="#9aa936" fill-rule="evenodd"/><polygon points="498.02 138.22 370.25 144.64 415.17 170.25 498.02 138.22" fill="#9aa936" fill-rule="evenodd"/><polygon points="412.42 214.71 498.02 138.22 415.17 170.25 412.42 214.71" fill="#c56f35" fill-rule="evenodd"/><text transform="translate(58.13 204.53) scale(0.85 1)" font-size="170.99" fill="#f9f9f9" font-family="MfQueenLeela, Mf Queen Leela">A</text><text transform="translate(108.52 211.58) scale(0.87 1)" font-size="169.27" fill="#f9f9f9" font-family="MfQueenLeela, Mf Queen Leela">l</text><text transform="translate(136.28 211.58) scale(0.87 1)" font-size="169.27" fill="#f9f9f9" font-family="MfQueenLeela, Mf Queen Leela">l</text><text transform="translate(141.4 212.35) scale(1.14 1)" font-size="137.9" fill="#f9f9f9" font-family="MfQueenLeela, Mf Queen Leela">y</text><text transform="translate(192.25 211.58) scale(1.05 1)" font-size="153.16" fill="#f9f9f9" font-family="MfQueenLeela, Mf Queen Leela">o</text><text transform="translate(239.56 211.58) scale(0.9 1)" font-size="158.9" fill="#f9f9f9" font-family="MfQueenLeela, Mf Queen Leela">u</text><text transform="translate(286.44 211.58) scale(0.91 1)" font-size="159.47" fill="#f9f9f9" font-family="MfQueenLeela, Mf Queen Leela">r</text><text transform="translate(330.82 211.58) scale(0.9 1)" font-size="163.05" fill="#f9f9f9" font-family="MfQueenLeela, Mf Queen Leela">s</text></svg>